<?xml version="1.0" encoding="UTF-8"?>
<svg width="25px" height="25px" viewBox="0 0 25 25" version="1.1" xmlns="http://www.w3.org/2000/svg" xmlns:xlink="http://www.w3.org/1999/xlink">
    <!-- Generator: Sketch 55 (78076) - https://sketchapp.com -->
    <title>Add </title>
    <desc>Created with Sketch.</desc>
    <g id="Design" stroke="none" stroke-width="1" fill="none" fill-rule="evenodd">
        <g id="Add-Products" transform="translate(-332.000000, -338.000000)">
            <g id="Group-6" transform="translate(280.000000, 238.000000)">
                <g id="Group-3" transform="translate(53.000000, 101.000000)">
                    <g id="Add-">
                        <g id="Group-14" fill="#C5C3C6" stroke="#C5C3C6">
                            <g id="Group">
                                <circle id="Oval" cx="11.5" cy="11.5" r="11.5"></circle>
                            </g>
                        </g>
                        <path d="M12.2294589,10.7150943 L17.3132075,10.7150943 C17.6925125,10.7150943 18,11.0225818 18,11.4018868 L18,11.4018868 C18,11.7811918 17.6925125,12.0886792 17.3132075,12.0886792 L12.2294589,12.0886792 L12.2294589,17.2119238 C12.2294589,17.6471663 11.8766252,18 11.4413828,18 L11.4413828,18 C11.0061403,18 10.6533066,17.6471663 10.6533066,17.2119238 L10.6533066,12.0886792 L5.68679245,12.0886792 C5.30748745,12.0886792 5,11.7811918 5,11.4018868 L5,11.4018868 C5,11.0225818 5.30748745,10.7150943 5.68679245,10.7150943 L10.6533066,10.7150943 L10.6533066,5.78807615 C10.6533066,5.35283371 11.0061403,5 11.4413828,5 L11.4413828,5 C11.8766252,5 12.2294589,5.35283371 12.2294589,5.78807615 L12.2294589,10.7150943 Z" id="Add" fill="#FFFFFF" fill-rule="nonzero"></path>
                    </g>
                </g>
            </g>
        </g>
    </g>
</svg>