<?xml version="1.0" encoding="UTF-8"?>
<svg width="126px" height="29px" viewBox="0 0 126 29" version="1.1" xmlns="http://www.w3.org/2000/svg" xmlns:xlink="http://www.w3.org/1999/xlink">
    <!-- Generator: Sketch 53.2 (72643) - https://sketchapp.com -->
    <title>Group Copy 2</title>
    <desc>Created with Sketch.</desc>
    <g id="Design" stroke="none" stroke-width="1" fill="none" fill-rule="evenodd">
        <g id="Group-Copy-2">
            <g id="Group-9">
                <path d="M50.2748259,10.891863 C49.2374288,9.8363756 47.8187419,9.2 46.2475674,9.2 C43.0897856,9.2 40.5269461,11.8075984 40.5269461,15.0205964 C40.5269461,18.2334503 43.0897856,20.8410487 46.2475674,20.8410487 C47.8340331,20.8410487 49.2680113,20.1736971 50.3052668,19.1182098 L48.1695908,16.9762591 C47.6966952,17.4730269 47.0254382,17.7523867 46.2475674,17.7523867 C44.6915426,17.7523867 43.5626812,16.6038274 43.5626812,15.0205964 C43.5626812,13.4373653 44.6915426,12.2888061 46.2475674,12.2888061 C47.0254382,12.2888061 47.6966952,12.5681659 48.1695908,13.0493736 L50.2748259,10.891863 Z M53.6614099,15.0361564 C53.6614099,11.8231584 56.2089582,9.2 59.36674,9.2 C62.5245218,9.2 65.0872197,11.8231584 65.0872197,15.0361564 C65.0872197,18.2490103 62.5245218,20.8410487 59.36674,20.8410487 C56.2089582,20.8410487 53.6614099,18.2490103 53.6614099,15.0361564 Z M62.0973583,15.0205964 C62.0973583,13.4839013 60.8768911,12.2422701 59.36674,12.2422701 C57.8717385,12.2422701 56.6512713,13.4839013 56.6512713,15.0205964 C56.6512713,16.5417314 57.8717385,17.7989226 59.36674,17.7989226 C60.8768911,17.7989226 62.0973583,16.5417314 62.0973583,15.0205964 Z M68.7027475,20.8410487 L75.8267645,20.8410487 L75.8267645,17.7678026 L71.7079001,17.7678026 L71.7079001,9.2 L68.7027475,9.2 L68.7027475,20.8410487 Z M79.5031741,20.8410487 L86.627191,20.8410487 L86.627191,17.7678026 L82.5083267,17.7678026 L82.5083267,9.2 L79.5031741,9.2 L79.5031741,20.8410487 Z M92.546032,20.8410487 L89.5408794,20.8410487 L94.8800693,9.2 L96.2377329,9.2 L101.622796,20.8410487 L98.6175023,20.8410487 L97.9158044,19.3200577 L93.2325802,19.3200577 L92.546032,20.8410487 Z M95.5817671,14.1823729 L94.4071737,16.7434353 L96.741211,16.7434353 L95.5817671,14.1823729 Z M107.678975,18.3266663 L109.692605,18.3266663 C110.241673,18.3266663 110.684128,17.8765786 110.684128,17.3177149 C110.684128,16.7589953 110.211232,16.3089076 109.692605,16.3089076 L107.678975,16.3089076 L107.678975,18.3266663 Z M107.678975,13.7478452 L109.128103,13.7478452 C109.677313,13.7478452 110.119768,13.2977575 110.119768,12.7388938 C110.119768,12.1801742 109.677313,11.7300865 109.128103,11.7300865 L107.678975,11.7300865 L107.678975,13.7478452 Z M110.317988,20.8410487 L104.673681,20.8410487 L104.673681,9.2 L109.723046,9.2 C111.553605,9.2 113.10963,10.798791 113.10963,12.6613819 C113.10963,13.4529254 112.819804,14.1823729 112.377491,14.7566525 C113.155362,15.3930281 113.674131,16.3710035 113.674131,17.4263468 C113.674131,19.2735217 112.133397,20.8410487 110.317988,20.8410487 Z M120.004844,18.3266663 L122.018474,18.3266663 C122.567684,18.3266663 123.009997,17.8765786 123.009997,17.3177149 C123.009997,16.7589953 122.537101,16.3089076 122.018474,16.3089076 L120.004844,16.3089076 L120.004844,18.3266663 Z M120.004844,13.7478452 L121.454114,13.7478452 C122.003182,13.7478452 122.445637,13.2977575 122.445637,12.7388938 C122.445637,12.1801742 122.003182,11.7300865 121.454114,11.7300865 L120.004844,11.7300865 L120.004844,13.7478452 Z M122.643998,20.8410487 L116.999692,20.8410487 L116.999692,9.2 L122.049056,9.2 C123.879615,9.2 125.43564,10.798791 125.43564,12.6613819 C125.43564,13.4529254 125.145815,14.1823729 124.70336,14.7566525 C125.481372,15.3930281 126,16.3710035 126,17.4263468 C126,19.2735217 124.459266,20.8410487 122.643998,20.8410487 L122.643998,20.8410487 Z" id="Fill-4" fill="#FFFFFF"></path>
                <g id="Group-5">
                    <path d="M23.5906402,0.195125 C23.45104,0.156625 23.3090411,0.124375 23.1653632,0.097125 C22.8363912,0.0345 22.4981845,0 22.1519423,0 L5.60751585,0 C2.51052548,0 0,2.61675 0,5.844625 L0,23.088125 C0,26.316 2.51052548,28.93275 5.60751585,28.93275 L22.1519423,28.93275 C22.6627304,28.93275 23.1572079,28.860125 23.6274592,28.72675 C26.0083388,28.0515 27.7594582,25.7835 27.7594582,23.088125 L27.7594582,5.844625 C27.7594582,3.13525 25.990349,0.85725 23.5906402,0.195125" id="Fill-3" fill="#223E7C"></path>
                    <g id="Group-2">
                        <path d="M12.6074361,17.41875 C7.13496306,17.31175 2.39874935,14.05325 0,9.312625 L0,23.088125 C0,26.316 2.51052548,28.93275 5.60751585,28.93275 L22.1519423,28.93275 C22.6627304,28.93275 23.1572079,28.860125 23.6274592,28.72675 C18.1108514,27.62725 13.7452259,23.137 12.6074361,17.41875" id="Fill-5" fill="#45B9FF"></path>
                        <path d="M23.1653632,0.097125 C22.8363912,0.0345 22.4981845,0 22.1519423,0 L5.60751585,0 C2.51052548,0 0,2.61675 0,5.844625 L0,9.312625 C2.39874935,14.05325 7.13496306,17.31175 12.6074361,17.41875 C12.4171048,16.4625 12.3168421,15.472 12.3168421,14.45725 C12.3168421,7.544625 16.9569907,1.755 23.1659629,0.287625 C23.3067624,0.254375 23.4484015,0.223875 23.5906402,0.195125 C23.45104,0.156625 23.3090411,0.124375 23.1653632,0.097125" id="Fill-6" fill="#F9CC68"></path>
                        <path d="M23.5906402,0.195125 C23.4484015,0.223875 23.3067624,0.254375 23.1659629,0.287625 C16.9569907,1.755 12.3168421,7.544625 12.3168421,14.45725 C12.3168421,15.472 12.4171048,16.4625 12.6074361,17.41875 C13.7452259,23.137 18.1108514,27.62725 23.6274592,28.72675 C26.0083388,28.0515 27.7594582,25.7835 27.7594582,23.088125 L27.7594582,5.844625 C27.7594582,3.13525 25.990349,0.85725 23.5906402,0.195125" id="Fill-7" fill="#2362BE"></path>
                    </g>
                </g>
            </g>
        </g>
    </g>
</svg>